<svg xmlns="http://www.w3.org/2000/svg" viewBox="0 0 512 512" role="img" aria-labelledby="title desc">
  <title id="title">Matrix Runner Icon</title>
  <desc id="desc">Stylised grid with highlighted runner path in a retro matrix palette.</desc>
  <defs>
    <linearGradient id="bg" x1="0%" y1="0%" x2="100%" y2="100%">
      <stop offset="0%" stop-color="#050505" />
      <stop offset="100%" stop-color="#101010" />
    </linearGradient>
  </defs>
  <rect width="512" height="512" fill="url(#bg)" rx="48" ry="48" />
  <g fill="#002b33" opacity="0.7">
    <rect x="96" y="96" width="32" height="32" />
    <rect x="160" y="96" width="32" height="32" />
    <rect x="224" y="96" width="32" height="32" />
    <rect x="288" y="96" width="32" height="32" />
    <rect x="352" y="96" width="32" height="32" />
    <rect x="96" y="160" width="32" height="32" />
    <rect x="352" y="160" width="32" height="32" />
    <rect x="96" y="224" width="32" height="32" />
    <rect x="352" y="224" width="32" height="32" />
    <rect x="96" y="288" width="32" height="32" />
    <rect x="352" y="288" width="32" height="32" />
    <rect x="96" y="352" width="32" height="32" />
    <rect x="160" y="352" width="32" height="32" />
    <rect x="224" y="352" width="32" height="32" />
    <rect x="288" y="352" width="32" height="32" />
    <rect x="352" y="352" width="32" height="32" />
  </g>
  <g fill="none" stroke="#00ffff" stroke-width="16" stroke-linecap="round" stroke-linejoin="round">
    <path d="M128 384h64v-96h96v-64h64" />
    <path d="M224 160h96v96" opacity="0.7" />
  </g>
  <g fill="#ff6600">
    <rect x="176" y="320" width="32" height="32" rx="8" />
  </g>
  <g stroke="#00ff9f" stroke-width="8" opacity="0.4">
    <rect x="72" y="72" width="368" height="368" rx="40" ry="40" />
  </g>
</svg>
